<svg width="1280" height="720" xmlns="http://www.w3.org/2000/svg" xmlns:xlink="http://www.w3.org/1999/xlink" overflow="hidden"><defs><clipPath id="clip0"><rect x="0" y="0" width="1280" height="720"/></clipPath></defs><g clip-path="url(#clip0)"><rect x="0" y="0" width="1280" height="720" fill="#FFFFFF"/><text font-family="Aptos Display,Aptos Display_MSFontService,sans-serif" font-weight="400" font-size="53.3333" transform="translate(44.8084 43)">Mittelwert, Median und Modalwert</text><text font-family="Aptos Display,Aptos Display_MSFontService,sans-serif" font-weight="400" font-size="53.3333" transform="translate(44.8084 101)">bei einer rechtsschiefen Verteilung</text><path d="M1.5-0.00352112 2.46831 412.497-0.531685 412.504-1.5 0.00352112ZM8.46477 410.982 1 426-6.53519 411.018Z" transform="matrix(1 0 0 -1 213.5 605.5)"/><text font-family="Arial,Arial_MSFontService,sans-serif" font-weight="700" font-size="26.6667" transform="translate(905.098 647)">Ausfallzeit</text><text font-family="Arial,Arial_MSFontService,sans-serif" font-style="italic" font-weight="700" font-size="26.6667" transform="translate(1045.6 647)">t</text><text font-family="Arial,Arial_MSFontService,sans-serif" font-weight="700" font-size="26.6667" transform="matrix(-1.83697e-16 -1 1 -1.83697e-16 180.992 507)">Dichtefunktion</text><text font-family="Arial,Arial_MSFontService,sans-serif" font-style="italic" font-weight="700" font-size="26.6667" transform="matrix(-1.83697e-16 -1 1 -1.83697e-16 180.992 313)">f</text><text font-family="Arial,Arial_MSFontService,sans-serif" font-weight="700" font-size="26.6667" transform="matrix(-1.83697e-16 -1 1 -1.83697e-16 180.992 304)">(</text><text font-family="Arial,Arial_MSFontService,sans-serif" font-style="italic" font-weight="700" font-size="26.6667" transform="matrix(-1.83697e-16 -1 1 -1.83697e-16 180.992 295)">t</text><text font-family="Arial,Arial_MSFontService,sans-serif" font-weight="700" font-size="26.6667" transform="matrix(-1.83697e-16 -1 1 -1.83697e-16 180.992 286)">)</text><path d="M1.72865e-07-1.5 897.501-1.4999 897.501 1.5001-1.72865e-07 1.5ZM896-7.4999 911 0.000104987 896 7.5001Z" transform="matrix(1 0 0 -1 214.5 604.5)"/><path d="M366 602C368.259 551.437 370.519 500.874 374.134 457.747 377.749 414.62 382.268 374.219 389.047 342.493 395.825 310.767 405.315 285.238 414.805 266.649 424.295 248.059 434.688 237.401 444.63 231.701 454.572 226 466.321 230.461 474.455 233.188 482.589 235.914 484.397 239.384 493.435 248.059 502.473 256.734 511.963 262.683 530.039 285.982 548.115 309.28 582.459 362.074 601.89 388.595 621.322 415.115 629.004 426.765 645.272 445.85 661.541 464.935 680.068 485.259 699.5 502.361 718.932 519.463 742.882 537.061 761.862 548.463 780.841 559.864 793.495 564.078 813.378 570.77 833.261 577.462 856.308 584.65 882.518 589.359 908.728 594.069 947.14 597.786 971.994 599.769 996.848 601.752 1014.92 601.504 1033 601.256" stroke="#FF0000" stroke-width="4" stroke-linejoin="round" stroke-miterlimit="10" fill="none" fill-rule="evenodd"/><path d="M463.5 232.5 464.5 614.5" stroke="#0F9ED5" stroke-width="3" stroke-linejoin="round" stroke-miterlimit="10" fill="none" fill-rule="evenodd"/><text fill="#0F9ED5" font-family="Arial,Arial_MSFontService,sans-serif" font-style="italic" font-weight="700" font-size="32" transform="translate(232.403 657)">t</text><text fill="#0F9ED5" font-family="Arial,Arial_MSFontService,sans-serif" font-weight="700" font-size="21.3333" transform="translate(243.07 664)">modal</text><path d="M0 0 108 24" stroke="#0F9ED5" stroke-width="2" stroke-linejoin="round" stroke-miterlimit="10" fill="none" fill-rule="evenodd" transform="matrix(-1 0 0 1 445 614)"/><path d="M0 0 1 345" stroke="#000000" stroke-width="3" stroke-linejoin="round" stroke-miterlimit="10" fill="none" fill-rule="evenodd" transform="matrix(-1 0 0 1 516.5 270.5)"/><text fill="#1F3A45" font-family="Arial,Arial_MSFontService,sans-serif" font-style="italic" font-weight="700" font-size="32" transform="translate(405.119 676)">t</text><text fill="#1F3A45" font-family="Arial,Arial_MSFontService,sans-serif" font-weight="700" font-size="21.3333" transform="translate(415.785 683)">median</text><path d="M0 0 8 41" stroke="#000000" stroke-width="2" stroke-linejoin="round" stroke-miterlimit="10" fill="none" fill-rule="evenodd" transform="matrix(-1 0 0 1 513 621)"/><path d="M540.5 304.5 541.5 615.5" stroke="#A02B93" stroke-width="3" stroke-linejoin="round" stroke-miterlimit="10" fill="none" fill-rule="evenodd"/><text fill="#A02B93" font-family="Arial,Arial_MSFontService,sans-serif" font-style="italic" font-weight="700" font-size="32" transform="translate(611.744 652)">t</text><text fill="#A02B93" font-family="Arial,Arial_MSFontService,sans-serif" font-weight="700" font-size="21.3333" transform="translate(622.411 659)">m</text><path d="M556 614 606 636" stroke="#A02B93" stroke-width="2" stroke-linejoin="round" stroke-miterlimit="10" fill="none" fill-rule="evenodd"/></g></svg>