<?xml version='1.0' encoding='utf-8'?>
<svg xmlns="http://www.w3.org/2000/svg" xmlns:xlink="http://www.w3.org/1999/xlink" width="532.8pt" height="288pt" viewBox="0 0 532.8 288" version="1.1"><metadata id="slide_quality_metadata" type="application/json"><![CDATA[{"artifactScope": "content-svg", "embeddingTarget": "powerpoint-slide", "slideType": "probability-plot", "contentTitle": "probability-plot", "layoutIntent": "Reusable mathematical asset in parent scene", "takeaway": "Quellgetreue mathematische Darstellung", "density": "normal", "contentMode": "transparent-content", "backgroundMode": "transparent", "brandProfile": "reltest-education", "brandVariant": "education"}]]></metadata>
 
 <defs>
  <style type="text/css">*{stroke-linejoin: round; stroke-linecap: butt}</style>
 </defs>
 <g id="figure_1">
  <g id="patch_1">
   <path data-role="plot-geometry" data-qc-allow-overlap="true" data-qa-reason="Plot grid, curve and marker geometry intentionally share the data plane" d="M 0 288  L 532.8 288  L 532.8 0  L 0 0  L 0 288  z " style="fill: none" />
  </g>
  <g id="patch_2">
   <path data-role="plot-geometry" data-qc-allow-overlap="true" data-qa-reason="Plot grid, curve and marker geometry intentionally share the data plane" d="M 118.512 285.12  L 403.632 285.12  L 403.632 0  L 118.512 0  L 118.512 285.12  z " style="fill: none" />
  </g>
  <g id="pane3d_1">
   <g id="patch_3">
    <path data-role="plot-geometry" data-qc-allow-overlap="true" data-qa-reason="Plot grid, curve and marker geometry intentionally share the data plane" d="M 114.66937 196.651866  L 231.370842 135.56241  L 230.34593 29.732659  L 109.65563 83.079517  " style="fill: none; opacity: 0.5; stroke: #e8e9ee; stroke-linejoin: miter" />
   </g>
  </g>
  <g id="pane3d_2">
   <g id="patch_4">
    <path data-role="plot-geometry" data-qc-allow-overlap="true" data-qa-reason="Plot grid, curve and marker geometry intentionally share the data plane" d="M 231.370842 135.56241  L 414.28518 192.217502  L 419.238358 79.197337  L 230.34593 29.732659  " style="fill: none; opacity: 0.5; stroke: #e8e9ee; stroke-linejoin: miter" />
   </g>
  </g>
  <g id="pane3d_3">
   <g id="patch_5">
    <path data-role="plot-geometry" data-qc-allow-overlap="true" data-qa-reason="Plot grid, curve and marker geometry intentionally share the data plane" d="M 114.66937 196.651866  L 304.808089 264.396953  L 414.28518 192.217502  L 231.370842 135.56241  " style="fill: none; opacity: 0.5; stroke: #e8e9ee; stroke-linejoin: miter" />
   </g>
  </g>
  <g id="axis3d_1">
   <g id="line2d_1">
    <path data-role="plot-geometry" data-qc-allow-overlap="true" data-qa-reason="Plot grid, curve and marker geometry intentionally share the data plane" d="M 114.66937 196.651866  L 304.808089 264.396953  " style="fill: none; stroke: #142452; stroke-width: 1.1; stroke-linecap: square" />
   </g>
  </g>
  <g id="axis3d_2">
   <g id="line2d_2">
    <path data-role="plot-geometry" data-qc-allow-overlap="true" data-qa-reason="Plot grid, curve and marker geometry intentionally share the data plane" d="M 414.28518 192.217502  L 304.808089 264.396953  " style="fill: none; stroke: #142452; stroke-width: 1.1; stroke-linecap: square" />
   </g>
  </g>
  <g id="axis3d_3">
   <g id="line2d_3">
    <path data-role="plot-geometry" data-qc-allow-overlap="true" data-qa-reason="Plot grid, curve and marker geometry intentionally share the data plane" d="M 414.28518 192.217502  L 419.238358 79.197337  " style="fill: none; stroke: #142452; stroke-width: 1.1; stroke-linecap: square" />
   </g>
  </g>
  <g id="axes_1">
   <g id="text_1">
    
    <g style="fill: #142452" transform="translate(81.590231 195.309335) scale(0.19 -0.19)">
     <defs>
      <path data-role="plot-geometry" data-qc-allow-overlap="true" data-qa-reason="Plot grid, curve and marker geometry intentionally share the data plane" id="Archivo-SemiBold-a1" d="M 1562 0  L 1562 3674  L 160 3674  L 160 4390  L 3802 4390  L 3802 3674  L 2394 3674  L 2394 0  L 1562 0  z " transform="scale(0.015625)" />
     </defs>
     <use xlink:href="#Archivo-SemiBold-a1" />
    </g>
   </g>
   <g id="text_2">
    
    <g style="fill: #142452" transform="translate(430.576295 197.263441) scale(0.19 -0.19)">
     <defs>
      <path data-role="plot-geometry" data-qc-allow-overlap="true" data-qa-reason="Plot grid, curve and marker geometry intentionally share the data plane" id="Archivo-SemiBold-fd" d="M 2202 -77  Q 1875 -77 1606 54  Q 1338 186 1171 448  L 1126 448  L 1062 0  L 416 0  L 416 4627  L 1197 4627  L 1197 2976  L 1235 2976  Q 1338 3130 1485 3235  Q 1632 3341 1824 3392  Q 2016 3443 2246 3443  Q 2624 3443 2915 3257  Q 3206 3072 3372 2685  Q 3539 2298 3539 1690  Q 3539 1075 3376 684  Q 3213 294 2915 108  Q 2618 -77 2202 -77  z M 1958 595  Q 2246 595 2416 707  Q 2586 819 2659 1049  Q 2733 1280 2733 1632  L 2733 1722  Q 2733 2080 2659 2313  Q 2586 2547 2416 2659  Q 2246 2771 1958 2771  Q 1760 2771 1616 2700  Q 1472 2630 1379 2496  Q 1286 2362 1241 2163  Q 1197 1965 1197 1715  L 1197 1632  Q 1197 1299 1277 1068  Q 1357 838 1526 716  Q 1696 595 1958 595  z " transform="scale(0.015625)" />
     </defs>
     <use xlink:href="#Archivo-SemiBold-fd" />
    </g>
   </g>
   <g id="text_3">
    
    <g style="fill: #142452" transform="translate(132.768 31.3632) scale(0.2 -0.2)">
     <defs>
      <path data-role="plot-geometry" data-qc-allow-overlap="true" data-qa-reason="Plot grid, curve and marker geometry intentionally share the data plane" id="DejaVuSans-4f" d="M 603 4863  L 1178 4863  L 1178 0  L 603 0  L 603 4863  z " transform="scale(0.015625)" />
      <path data-role="plot-geometry" data-qc-allow-overlap="true" data-qa-reason="Plot grid, curve and marker geometry intentionally share the data plane" id="DejaVuSans-51" d="M 3513 2113  L 3513 0  L 2938 0  L 2938 2094  Q 2938 2591 2744 2837  Q 2550 3084 2163 3084  Q 1697 3084 1428 2787  Q 1159 2491 1159 1978  L 1159 0  L 581 0  L 581 3500  L 1159 3500  L 1159 2956  Q 1366 3272 1645 3428  Q 1925 3584 2291 3584  Q 2894 3584 3203 3211  Q 3513 2838 3513 2113  z " transform="scale(0.015625)" />
      <path data-role="plot-geometry" data-qc-allow-overlap="true" data-qa-reason="Plot grid, curve and marker geometry intentionally share the data plane" id="DejaVuSans-Oblique-2f" d="M 1075 4666  L 1709 4666  L 909 525  L 3181 525  L 3078 0  L 172 0  L 1075 4666  z " transform="scale(0.015625)" />
      <path data-role="plot-geometry" data-qc-allow-overlap="true" data-qa-reason="Plot grid, curve and marker geometry intentionally share the data plane" id="DejaVuSans-b" d="M 1984 4856  Q 1566 4138 1362 3434  Q 1159 2731 1159 2009  Q 1159 1288 1364 580  Q 1569 -128 1984 -844  L 1484 -844  Q 1016 -109 783 600  Q 550 1309 550 2009  Q 550 2706 781 3412  Q 1013 4119 1484 4856  L 1984 4856  z " transform="scale(0.015625)" />
      <path data-role="plot-geometry" data-qc-allow-overlap="true" data-qa-reason="Plot grid, curve and marker geometry intentionally share the data plane" id="DejaVuSans-Oblique-37" d="M 378 4666  L 4325 4666  L 4225 4134  L 2559 4134  L 1759 0  L 1125 0  L 1925 4134  L 275 4134  L 378 4666  z " transform="scale(0.015625)" />
      <path data-role="plot-geometry" data-qc-allow-overlap="true" data-qa-reason="Plot grid, curve and marker geometry intentionally share the data plane" id="DejaVuSans-f" d="M 750 794  L 1409 794  L 1409 256  L 897 -744  L 494 -744  L 750 256  L 750 794  z " transform="scale(0.015625)" />
      <path data-role="plot-geometry" data-qc-allow-overlap="true" data-qa-reason="Plot grid, curve and marker geometry intentionally share the data plane" id="DejaVuSans-Oblique-45" d="M 3169 2138  Q 3169 2591 2961 2847  Q 2753 3103 2388 3103  Q 2122 3103 1889 2973  Q 1656 2844 1484 2597  Q 1303 2338 1198 1995  Q 1094 1653 1094 1313  Q 1094 881 1298 636  Q 1503 391 1863 391  Q 2134 391 2365 517  Q 2597 644 2772 891  Q 2950 1147 3059 1487  Q 3169 1828 3169 2138  z M 1381 2969  Q 1594 3256 1914 3420  Q 2234 3584 2584 3584  Q 3122 3584 3439 3221  Q 3756 2859 3756 2241  Q 3756 1734 3570 1259  Q 3384 784 3041 416  Q 2816 172 2522 40  Q 2228 -91 1906 -91  Q 1566 -91 1316 65  Q 1066 222 909 531  L 806 0  L 231 0  L 1178 4863  L 1753 4863  L 1381 2969  z " transform="scale(0.015625)" />
      <path data-role="plot-geometry" data-qc-allow-overlap="true" data-qa-reason="Plot grid, curve and marker geometry intentionally share the data plane" id="DejaVuSans-c" d="M 513 4856  L 1013 4856  Q 1481 4119 1714 3412  Q 1947 2706 1947 2009  Q 1947 1309 1714 600  Q 1481 -109 1013 -844  L 513 -844  Q 928 -128 1133 580  Q 1338 1288 1338 2009  Q 1338 2731 1133 3434  Q 928 4138 513 4856  z " transform="scale(0.015625)" />
     </defs>
     <use xlink:href="#DejaVuSans-4f" transform="translate(0 0.015625)" />
     <use xlink:href="#DejaVuSans-51" transform="translate(27.783203 0.015625)" />
     <use xlink:href="#DejaVuSans-Oblique-2f" transform="translate(107.397786 0.015625)" />
     <use xlink:href="#DejaVuSans-b" transform="translate(163.110676 0.015625)" />
     <use xlink:href="#DejaVuSans-Oblique-37" transform="translate(202.124348 0.015625)" />
     <use xlink:href="#DejaVuSans-f" transform="translate(263.208333 0.015625)" />
     <use xlink:href="#DejaVuSans-Oblique-45" transform="translate(314.477864 0.015625)" />
     <use xlink:href="#DejaVuSans-c" transform="translate(377.954426 0.015625)" />
    </g>
   </g>
   <g id="mle_surface" data-anim-target="true" data-anim-label="mle surface"><g id="mle_surface_part_0">
    <path data-role="plot-geometry" data-qc-allow-overlap="true" data-qa-reason="Plot grid, curve and marker geometry intentionally share the data plane" d="M 111.110402 116.033339  L 117.456487 117.26116  L 123.849273 118.615339  L 130.287952 120.081083  L 136.771909 121.64598  L 143.300684 123.299545  L 149.87395 125.032874  L 156.491484 126.838366  L 163.153157 128.709499  L 169.858911 130.640655  L 176.608754 132.626975  L 183.402752 134.66424  L 190.241013 136.748776  L 197.123689 138.877373  L 204.050968 141.04722  L 211.023068 143.25585  L 218.040237 145.50109  L 225.102746 147.781028  L 232.210889 150.093973  L 239.364981 152.438433  L 246.565355 154.813085  L 253.812361 157.216761  L 261.106364 159.648424  L 268.447744 162.107157  L 275.836894 164.592147  L 283.274223 167.102675  L 290.760147 169.638106  L 298.295097 172.197879  L 305.879514 174.781502  " clip-path="url(#p6b8a6c0923)" style="fill: none; stroke: #142452; stroke-opacity: 0.45; stroke-width: 0.7" />
    <path data-role="plot-geometry" data-qc-allow-overlap="true" data-qa-reason="Plot grid, curve and marker geometry intentionally share the data plane" d="M 120.894839 106.978624  L 127.224471 107.866879  L 133.603348 108.935915  L 140.03012 110.16281  L 146.50373 111.528424  L 153.023352 113.016674  L 159.588352 114.613962  L 166.198255 116.308733  L 172.852712 118.091115  L 179.551486 119.952637  L 186.29443 121.886  L 193.081473 123.88489  L 199.912612 125.943825  L 206.7879 128.05803  L 213.707437 130.223336  L 220.671368 132.43609  L 227.679873 134.693085  L 234.733165 136.991501  L 241.831489 139.328849  L 248.975111 141.702933  L 256.164324 144.111811  L 263.399439 146.553763  L 270.68079 149.027264  L 278.008724 151.530963  L 285.383608 154.063661  L 292.805821 156.624294  L 300.275758 159.211918  L 307.793825 161.825697  L 315.360444 164.464888  " clip-path="url(#p6b8a6c0923)" style="fill: none; stroke: #142452; stroke-opacity: 0.45; stroke-width: 0.7" />
    <path data-role="plot-geometry" data-qc-allow-overlap="true" data-qa-reason="Plot grid, curve and marker geometry intentionally share the data plane" d="M 130.650997 100.199872  L 136.959137 100.679331  L 143.319491 101.408823  L 149.730053 102.354641  L 156.18923 103.488787  L 162.695757 104.787852  L 169.24864 106.232139  L 175.847101 107.804988  L 182.490543 109.492226  L 189.178518 111.281747  L 195.910701 113.163158  L 202.686873 115.127507  L 209.506901 117.167047  L 216.370728 119.275059  L 223.278362 121.445691  L 230.229864 123.673833  L 237.225346 125.955014  L 244.264958 128.285308  L 251.348889 130.661263  L 258.47736 133.079839  L 265.650619 135.53835  L 272.868942 138.034424  L 280.132625 140.56596  L 287.441987 143.131098  L 294.797364 145.728186  L 302.199113 148.355762  L 309.647601 151.012525  L 317.143215 153.697323  L 324.686353 156.409132  " clip-path="url(#p6b8a6c0923)" style="fill: none; stroke: #142452; stroke-opacity: 0.45; stroke-width: 0.7" />
    <path data-role="plot-geometry" data-qc-allow-overlap="true" data-qa-reason="Plot grid, curve and marker geometry intentionally share the data plane" d="M 140.348128 95.293959  L 146.630524 95.280004  L 152.968556 95.602663  L 159.359433 96.214232  L 165.800927 97.075289  L 172.291262 98.153036  L 178.829023 99.420011  L 185.413088 100.853091  L 192.042575 102.432698  L 198.7168 104.142178  L 205.435239 105.967296  L 212.197509 107.895837  L 219.003336 109.917279  L 225.852547 112.022522  L 232.745046 114.203674  L 239.680811 116.453866  L 246.659878 118.767107  L 253.682334 121.138154  L 260.748312 123.562412  L 267.857985 126.03584  L 275.011559 128.554885  L 282.209271 131.11641  L 289.451385 133.717647  L 296.738189 136.356146  L 304.069994 139.029739  L 311.447128 141.736506  L 318.86994 144.474744  L 326.338793 147.242944  L 333.854067 150.039766  " clip-path="url(#p6b8a6c0923)" style="fill: none; stroke: #142452; stroke-opacity: 0.45; stroke-width: 0.7" />
    <path data-role="plot-geometry" data-qc-allow-overlap="true" data-qa-reason="Plot grid, curve and marker geometry intentionally share the data plane" d="M 149.965833 92.020844  L 156.218865 91.412951  L 162.531414 91.248492  L 168.899768 91.461886  L 175.320967 91.999216  L 181.792645 92.815841  L 188.312907 93.874567  L 194.880245 95.144216  L 201.493458 96.598515  L 208.1516 98.21521  L 214.853933 99.975363  L 221.599892 101.862789  L 228.389056 103.863602  L 235.221126 105.965839  L 242.095901 108.159165  L 249.01327 110.434619  L 255.973192 112.78441  L 262.975692 115.201744  L 270.020846 117.680685  L 277.10878 120.216033  L 284.239658 122.803223  L 291.413681 125.438242  L 298.631082 128.117554  L 305.892121 130.838039  L 313.197082 133.596945  L 320.546273 136.391835  L 327.940021 139.220555  L 335.37867 142.081199  L 342.862583 144.972075  " clip-path="url(#p6b8a6c0923)" style="fill: none; stroke: #142452; stroke-opacity: 0.45; stroke-width: 0.7" />
    <path data-role="plot-geometry" data-qc-allow-overlap="true" data-qa-reason="Plot grid, curve and marker geometry intentionally share the data plane" d="M 159.489631 90.236794  L 165.710258 88.917621  L 171.994735 88.17228  L 178.338294 87.912666  L 184.737134 88.066702  L 191.18822 88.575003  L 197.689126 89.388322  L 204.237911 90.465573  L 210.833024 91.772288  L 217.473238 93.279399  L 224.157581 94.962277  L 230.885298 96.799961  L 237.655812 98.77454  L 244.468691 100.870646  L 251.32363 103.075053  L 258.220424 105.376334  L 265.15896 107.764592  L 272.139198 110.231228  L 279.16116 112.768754  L 286.224927 115.37063  L 293.330623 118.031135  L 300.478417 120.745255  L 307.668511 123.508584  L 314.90114 126.317249  L 322.176566 129.167838  L 329.495077 132.05734  L 336.856982 134.983101  L 344.262609 137.942774  L 351.712305 140.934287  " clip-path="url(#p6b8a6c0923)" style="fill: none; stroke: #142452; stroke-opacity: 0.45; stroke-width: 0.7" />
    <path data-role="plot-geometry" data-qc-allow-overlap="true" data-qa-reason="Plot grid, curve and marker geometry intentionally share the data plane" d="M 168.908614 89.860363  L 175.094384 87.69452  L 181.348772 86.260299  L 187.665802 85.441529  L 194.040732 85.143631  L 200.469784 85.289054  L 206.949941 85.813786  L 213.47879 86.664666  L 220.054406 87.797297  L 226.675256 89.174404  L 233.340124 90.764539  L 240.048057 92.541049  L 246.798315 94.481252  L 253.590334 96.565768  L 260.423699 98.777977  L 267.29812 101.103581  L 274.213406 103.530238  L 281.169458 106.047264  L 288.166247 108.645389  L 295.203811 111.316545  L 302.28224 114.053697  L 309.401671 116.850699  L 316.562282 119.702167  L 323.764284 122.603385  L 331.007922 125.550207  L 338.293466 128.538989  L 345.621209 131.566524  L 352.991468 134.629985  L 360.404576 137.726882  " clip-path="url(#p6b8a6c0923)" style="fill: none; stroke: #142452; stroke-opacity: 0.45; stroke-width: 0.7" />
    <path data-role="plot-geometry" data-qc-allow-overlap="true" data-qa-reason="Plot grid, curve and marker geometry intentionally share the data plane" d="M 178.214084 90.853629  L 184.363188 87.686174  L 190.586063 85.439851  L 196.875388 83.963855  L 203.225373 83.135985  L 209.631423 82.856506  L 216.08988 83.043476  L 222.597825 83.62915  L 229.152933 84.557205  L 235.753351 85.780556  L 242.397609 87.259652  L 249.08455 88.961113  L 255.813271 90.856647  L 262.583075 92.922178  L 269.393443 95.137144  L 276.243996 97.483917  L 283.134476 99.947344  L 290.064725 102.514354  L 297.034669 105.173644  L 304.044308 107.915413  L 311.0937 110.731145  L 318.182958 113.613424  L 325.312236 116.555777  L 332.481731 119.552546  L 339.691669 122.598779  L 346.942308 125.690135  L 354.233932 128.822801  L 361.566844 131.993431  L 368.94137 135.199081  " clip-path="url(#p6b8a6c0923)" style="fill: none; stroke: #142452; stroke-opacity: 0.45; stroke-width: 0.7" />
    <path data-role="plot-geometry" data-qc-allow-overlap="true" data-qa-reason="Plot grid, curve and marker geometry intentionally share the data plane" d="M 187.398704 93.211213  L 193.510049 88.86591  L 199.700641 85.667847  L 205.961673 83.42385  L 212.28621 81.97809  L 218.668775 81.203962  L 225.105021 80.997913  L 231.591496 81.274717  L 238.125453 81.963822  L 244.704711 83.00651  L 251.327542 84.353667  L 257.992584 85.964013  L 264.698771 87.802708  L 271.445281 89.840221  L 278.231492 92.05143  L 285.056944 94.414884  L 291.921316 96.91221  L 298.824399 99.52762  L 305.76608 102.247512  L 312.746326 105.060133  L 319.76517 107.955307  L 326.822704 110.924199  L 333.919067 113.959128  L 341.054442 117.053402  L 348.229044 120.201179  L 355.443124 123.397355  L 362.696956 126.637465  L 369.990838 129.917596  L 377.325091 133.23432  " clip-path="url(#p6b8a6c0923)" style="fill: none; stroke: #142452; stroke-opacity: 0.45; stroke-width: 0.7" />
    <path data-role="plot-geometry" data-qc-allow-overlap="true" data-qa-reason="Plot grid, curve and marker geometry intentionally share the data plane" d="M 196.455921 96.953595  L 202.529232 91.23094  L 208.687499 86.923702  L 214.920293 83.787286  L 221.219451 81.625232  L 227.57855 80.278614  L 233.992522 79.618015  L 240.457358 79.537385  L 246.969883 79.949316  L 253.527581 80.781375  L 260.128467 81.973227  L 266.770979 83.47438  L 273.453895 85.242388  L 280.176275 87.241421  L 286.937401 89.441117  L 293.736744 91.815656  L 300.573926 94.343002  L 307.448697 97.004293  L 314.36091 99.783338  L 321.310508 102.666196  L 328.297506 105.640841  L 335.321982 108.696866  L 342.384065 111.825257  L 349.483929 115.018183  L 356.621786 118.268834  L 363.797881 121.571277  L 371.012485 124.920338  L 378.265895 128.311499  L 385.558427 131.740812  " clip-path="url(#p6b8a6c0923)" style="fill: none; stroke: #142452; stroke-opacity: 0.45; stroke-width: 0.7" />
    <path data-role="plot-geometry" data-qc-allow-overlap="true" data-qa-reason="Plot grid, curve and marker geometry intentionally share the data plane" d="M 205.379558 102.122896  L 211.415507 94.797946  L 217.542224 89.204753  L 223.747547 85.036782  L 230.022007 82.048813  L 236.358196 80.043304  L 242.750299 78.860069  L 249.193739 78.368405  L 255.684909 78.461046  L 262.220967 79.049474  L 268.799678 80.060272  L 275.419289 81.43225  L 282.078438 83.114181  L 288.776073 85.062999  L 295.511397 87.242351  L 302.283821 89.621444  L 309.092923 92.174101  L 315.93842 94.877997  L 322.820143 97.714038  L 329.73802 100.665848  L 336.692055 103.719343  L 343.68232 106.862388  L 350.708941 110.084498  L 357.77209 113.376603  L 364.87198 116.730837  L 372.008856 120.140372  L 379.182991 123.599272  L 386.394684 127.10237  L 393.644254 130.645166  " clip-path="url(#p6b8a6c0923)" style="fill: none; stroke: #142452; stroke-opacity: 0.45; stroke-width: 0.7" />
    <path data-role="plot-geometry" data-qc-allow-overlap="true" data-qa-reason="Plot grid, curve and marker geometry intentionally share the data plane" d="M 214.163508 108.780185  L 220.163859 99.600203  L 226.26073 92.523223  L 232.440139 87.16863  L 238.691258 83.233078  L 245.005668 80.473159  L 251.376798 78.692295  L 257.799508 77.730756  L 264.26977 77.457996  L 270.784428 77.766739  L 277.341015 78.568376  L 283.937607 79.789363  L 290.572715 81.36838  L 297.245198 83.254081  L 303.954195 85.403301  L 310.699069 87.779613  L 317.47937 90.352173  L 324.294796 93.094775  L 331.145167 95.985087  L 338.030406 99.004027  L 344.950516 102.135244  L 351.905572 105.364696  L 358.895705 108.680297  L 365.921092 112.071622  L 372.981952 115.529666  L 380.078537 119.046635  L 387.211127 122.615778  L 394.380027 126.231236  L 401.585561 129.887922  " clip-path="url(#p6b8a6c0923)" style="fill: none; stroke: #142452; stroke-opacity: 0.45; stroke-width: 0.7" />
    <path data-role="plot-geometry" data-qc-allow-overlap="true" data-qa-reason="Plot grid, curve and marker geometry intentionally share the data plane" d="M 222.801487 117.003713  L 228.769264 105.685662  L 234.839051 96.904167  L 240.994988 90.190631  L 247.224865 85.172847  L 253.51925 81.553245  L 259.870831 79.092435  L 266.273922 77.596675  L 272.7241 76.908263  L 279.217923 76.898143  L 285.752719 77.460148  L 292.326418 78.506523  L 298.937431 79.964396  L 305.58455 81.772993  L 312.266868 83.881421  L 318.983726 86.246907  L 325.734659 88.833364  L 332.519363 91.610253  L 339.33766 94.551646  L 346.189481 97.635467  L 353.07484 100.84287  L 359.993823 104.157727  L 366.946575 107.566204  L 373.933288 111.056413  L 380.954191 114.618116  L 388.009552 118.242485  L 395.09966 121.921897  L 402.224833 125.649757  L 409.385404 129.420361  " clip-path="url(#p6b8a6c0923)" style="fill: none; stroke: #142452; stroke-opacity: 0.45; stroke-width: 0.7" />
    <path data-role="plot-geometry" data-qc-allow-overlap="true" data-qa-reason="Plot grid, curve and marker geometry intentionally share the data plane" d="M 231.286832 126.887737  L 237.226513 113.115667  L 243.27318 102.384068  L 249.409078 94.120578  L 255.620634 87.871909  L 261.89743 83.276888  L 268.231448 80.04601  L 274.616502 77.945869  L 281.047816 76.787229  L 287.521702 76.415843  L 294.035322 76.705338  L 300.586498 77.551677  L 307.173572 78.868815  L 313.795299 80.585277  L 320.450757 82.64145  L 327.139283 84.987421  L 333.860421 87.581247  L 340.613882 90.387565  L 347.399509 93.376464  L 354.217253 96.522569  L 361.067153 99.804299  L 367.949317 103.203248  L 374.863913 106.703687  L 381.811155 110.292144  L 388.791294 113.957058  L 395.804614 117.688494  L 402.851426 121.477901  L 409.93206 125.317907  L 417.046866 129.202157  " clip-path="url(#p6b8a6c0923)" style="fill: none; stroke: #142452; stroke-opacity: 0.45; stroke-width: 0.7" />
    <path data-role="plot-geometry" data-qc-allow-overlap="true" data-qa-reason="Plot grid, curve and marker geometry intentionally share the data plane" d="M 111.110402 116.033339  L 116.003629 111.18685  L 120.894839 106.978624  L 125.778692 103.334911  L 130.650997 100.199872  L 135.508392 97.530627  L 140.348128 95.293959  L 145.167918 93.464042  L 149.965833 92.020844  L 154.740216 90.948965  L 159.489631 90.236794  L 164.212808 89.875861  L 168.908614 89.860363  L 173.576021 90.186789  L 178.214084 90.853629  L 182.821923 91.861149  L 187.398704 93.211213  L 191.943629 94.907142  L 196.455921 96.953595  L 200.934817 99.356484  L 205.379558 102.122896  L 209.78938 105.261038  L 214.163508 108.780185  L 218.50115 112.690642  L 222.801487 117.003713  L 227.063675 121.73167  L 231.286832 126.887737  " clip-path="url(#p6b8a6c0923)" style="fill: none; stroke: #142452; stroke-opacity: 0.45; stroke-width: 0.7" />
    <path data-role="plot-geometry" data-qc-allow-overlap="true" data-qa-reason="Plot grid, curve and marker geometry intentionally share the data plane" d="M 123.849273 118.615339  L 128.72865 113.47018  L 133.603348 108.935915  L 138.468288 104.93525  L 143.319491 101.408823  L 148.153775 98.310225  L 152.968556 95.602663  L 157.761697 93.256673  L 162.531414 91.248492  L 167.276191 89.558886  L 171.994735 88.17228  L 176.685923 87.076105  L 181.348772 86.260299  L 185.982411 85.716922  L 190.586063 85.439851  L 195.159022 85.424545  L 199.700641 85.667847  L 204.210321 86.167837  L 208.687499 86.923702  L 213.131638 87.935635  L 217.542224 89.204753  L 221.918753 90.733027  L 226.26073 92.523223  L 230.567662 94.57886  L 234.839051 96.904167  L 239.074396 99.50405  L 243.27318 102.384068  " clip-path="url(#p6b8a6c0923)" style="fill: none; stroke: #142452; stroke-opacity: 0.45; stroke-width: 0.7" />
    <path data-role="plot-geometry" data-qc-allow-overlap="true" data-qa-reason="Plot grid, curve and marker geometry intentionally share the data plane" d="M 136.771909 121.64598  L 141.641336 116.289734  L 146.50373 111.528424  L 151.35428 107.282086  L 156.18923 103.488787  L 161.005585 100.09961  L 165.800927 97.075289  L 170.573269 94.3839  L 175.320967 91.999216  L 180.042644 89.899515  L 184.737134 88.066702  L 189.403447 86.485637  L 194.040732 85.143631  L 198.648255 84.030047  L 203.225373 83.135985  L 207.771524 82.454038  L 212.28621 81.97809  L 216.768987 81.703152  L 221.219451 81.625232  L 225.637237 81.741222  L 230.022007 82.048813  L 234.373446 82.54641  L 238.691258 83.233078  L 242.975156 84.108482  L 247.224865 85.172847  L 251.440114 86.426913  L 255.620634 87.871909  " clip-path="url(#p6b8a6c0923)" style="fill: none; stroke: #142452; stroke-opacity: 0.45; stroke-width: 0.7" />
    <path data-role="plot-geometry" data-qc-allow-overlap="true" data-qa-reason="Plot grid, curve and marker geometry intentionally share the data plane" d="M 149.87395 125.032874  L 154.735775 119.530002  L 159.588352 114.613962  L 164.427151 110.202651  L 169.24864 106.232139  L 174.050016 102.651618  L 178.829023 99.420011  L 183.583824 96.503641  L 188.312907 93.874567  L 193.015022 91.509383  L 197.689126 89.388322  L 202.334344 87.494577  L 206.949941 85.813786  L 211.535295 84.333621  L 216.08988 83.043476  L 220.613249 81.934203  L 225.105021 80.997913  L 229.564872 80.227802  L 233.992522 79.618015  L 238.387734 79.163531  L 242.750299 78.860069  L 247.080039 78.704001  L 251.376798 78.692295  L 255.640436 78.822446  L 259.870831 79.092435  L 264.067869 79.500681  L 268.231448 80.04601  " clip-path="url(#p6b8a6c0923)" style="fill: none; stroke: #142452; stroke-opacity: 0.45; stroke-width: 0.7" />
    <path data-role="plot-geometry" data-qc-allow-overlap="true" data-qa-reason="Plot grid, curve and marker geometry intentionally share the data plane" d="M 163.153157 128.709499  L 168.008646 123.108201  L 172.852712 118.091115  L 177.681112 113.574316  L 182.490543 109.492226  L 187.278395 105.792516  L 192.042575 102.432698  L 196.78139 99.377765  L 201.493458 96.598515  L 206.177647 94.070335  L 210.833024 91.772288  L 215.458822 89.686434  L 220.054406 87.797297  L 224.619253 86.091453  L 229.152933 84.557205  L 233.655095 83.184321  L 238.125453 81.963822  L 242.563776 80.887808  L 246.969883 79.949316  L 251.34363 79.142204  L 255.684909 78.461046  L 259.993641 77.901051  L 264.26977 77.457996  L 268.513262 77.128156  L 272.7241 76.908263  L 276.902281 76.795453  L 281.047816 76.787229  " clip-path="url(#p6b8a6c0923)" style="fill: none; stroke: #142452; stroke-opacity: 0.45; stroke-width: 0.7" />
    <path data-role="plot-geometry" data-qc-allow-overlap="true" data-qa-reason="Plot grid, curve and marker geometry intentionally share the data plane" d="M 176.608754 132.626975  L 181.458403 126.963761  L 186.29443 121.886  L 191.112884 117.30814  L 195.910701 113.163158  L 200.685462 109.397431  L 205.435239 105.967296  L 210.158481 102.836671  L 214.853933 99.975363  L 219.520575 97.357833  L 224.157581 94.962277  L 228.764278 92.769932  L 233.340124 90.764539  L 237.884684 88.93192  L 242.397609 87.259652  L 246.878631 85.736792  L 251.327542 84.353667  L 255.74419 83.101692  L 260.128467 81.973227  L 264.480308 80.961454  L 268.799678 80.060272  L 273.086574 79.264215  L 277.341015 78.568376  L 281.563044 77.968343  L 285.752719 77.460148  L 289.910116 77.040219  L 294.035322 76.705338  " clip-path="url(#p6b8a6c0923)" style="fill: none; stroke: #142452; stroke-opacity: 0.45; stroke-width: 0.7" />
    <path data-role="plot-geometry" data-qc-allow-overlap="true" data-qa-reason="Plot grid, curve and marker geometry intentionally share the data plane" d="M 190.241013 136.748776  L 195.084756 131.051583  L 199.912612 125.943825  L 204.720935 121.338428  L 209.506901 117.167047  L 214.268288 113.374896  L 219.003336 109.917279  L 223.710636 106.75719  L 228.389056 103.863602  L 233.037691 101.210217  L 237.655812 98.77454  L 242.242839 96.537169  L 246.798315 94.481252  L 251.321882 92.59206  L 255.813271 90.856647  L 260.27228 89.263578  L 264.698771 87.802708  L 269.092657 86.465004  L 273.453895 85.242388  L 277.78248 84.127618  L 282.078438 83.114181  L 286.341823 82.196205  L 290.572715 81.36838  L 294.771213 80.625899  L 298.937431 79.964396  L 303.071503 79.379906  L 307.173572 78.868815  " clip-path="url(#p6b8a6c0923)" style="fill: none; stroke: #142452; stroke-opacity: 0.45; stroke-width: 0.7" />
    <path data-role="plot-geometry" data-qc-allow-overlap="true" data-qa-reason="Plot grid, curve and marker geometry intentionally share the data plane" d="M 204.050968 141.04722  L 208.888325 135.337598  L 213.707437 130.223336  L 218.504974 125.615901  L 223.278362 121.445691  L 228.025583 117.656831  L 232.745046 114.203674  L 237.435487 111.048375  L 242.095901 108.159165  L 246.725492 105.509087  L 251.32363 103.075053  L 255.889824 100.837128  L 260.423699 98.777977  L 264.924973 96.882432  L 269.393443 95.137144  L 273.828975 93.530306  L 278.231492 92.05143  L 282.600963 90.69116  L 286.937401 89.441117  L 291.240854 88.293776  L 295.511397 87.242351  L 299.749136 86.280712  L 303.954195 85.403301  L 308.126719 84.60507  L 312.266868 83.881421  L 316.374819 83.22816  L 320.450757 82.64145  " clip-path="url(#p6b8a6c0923)" style="fill: none; stroke: #142452; stroke-opacity: 0.45; stroke-width: 0.7" />
    <path data-role="plot-geometry" data-qc-allow-overlap="true" data-qa-reason="Plot grid, curve and marker geometry intentionally share the data plane" d="M 218.040237 145.50109  L 222.87041 139.795755  L 227.679873 134.693085  L 232.465623 130.103113  L 237.225346 125.955014  L 241.957236 122.191864  L 246.659878 118.767107  L 251.332155 115.642109  L 255.973192 112.78441  L 260.582304 110.166445  L 265.15896 107.764592  L 269.70276 105.558442  L 274.213406 103.530238  L 278.69069 101.664434  L 283.134476 99.947344  L 287.544691 98.366857  L 291.921316 96.91221  L 296.264374 95.573793  L 300.573926 94.343002  L 304.850069 93.212097  L 309.092923 92.174101  L 313.302635 91.222701  L 317.47937 90.352173  L 321.623312 89.557309  L 325.734659 88.833364  L 329.813622 88.176  L 333.860421 87.581247  " clip-path="url(#p6b8a6c0923)" style="fill: none; stroke: #142452; stroke-opacity: 0.45; stroke-width: 0.7" />
    <path data-role="plot-geometry" data-qc-allow-overlap="true" data-qa-reason="Plot grid, curve and marker geometry intentionally share the data plane" d="M 232.210889 150.093973  L 237.032836 144.405942  L 241.831489 139.328849  L 246.604188 134.7713  L 251.348889 130.661263  L 256.064009 126.940781  L 260.748312 123.562412  L 265.400839 120.486754  L 270.020846 117.680685  L 274.607762 115.116061  L 279.16116 112.768754  L 283.680727 110.617912  L 288.166247 108.645389  L 292.617584 106.835297  L 297.034669 105.173644  L 301.41749 103.64805  L 305.76608 102.247512  L 310.080517 100.962207  L 314.36091 99.783338  L 318.607397 98.702993  L 322.820143 97.714038  L 326.999332 96.810021  L 331.145167 95.985087  L 335.257866 95.233913  L 339.33766 94.551646  L 343.38479 93.93385  L 347.399509 93.376464  " clip-path="url(#p6b8a6c0923)" style="fill: none; stroke: #142452; stroke-opacity: 0.45; stroke-width: 0.7" />
    <path data-role="plot-geometry" data-qc-allow-overlap="true" data-qa-reason="Plot grid, curve and marker geometry intentionally share the data plane" d="M 246.565355 154.813085  L 251.37784 149.152508  L 256.164324 144.111811  L 260.922503 139.598171  L 265.650619 135.53835  L 270.347319 131.873362  L 275.011559 128.554885  L 279.642541 125.542765  L 284.239658 122.803223  L 288.80246 120.307553  L 293.330623 118.031135  L 297.823928 115.95269  L 302.28224 114.053697  L 306.705498 112.317942  L 311.0937 110.731145  L 315.446894 109.280676  L 319.76517 107.955307  L 324.048655 106.745019  L 328.297506 105.640841  L 332.511905 104.634706  L 336.692055 103.719343  L 340.83818 102.888177  L 344.950516 102.135244  L 349.029316 101.455122  L 353.07484 100.84287  L 357.087359 100.293973  L 361.067153 99.804299  " clip-path="url(#p6b8a6c0923)" style="fill: none; stroke: #142452; stroke-opacity: 0.45; stroke-width: 0.7" />
    <path data-role="plot-geometry" data-qc-allow-overlap="true" data-qa-reason="Plot grid, curve and marker geometry intentionally share the data plane" d="M 261.106364 159.648424  L 265.907996 154.023206  L 270.68079 149.027264  L 275.42282 144.566333  L 280.132625 140.56596  L 284.809094 136.966132  L 289.451385 133.717647  L 294.058868 130.779596  L 298.631082 128.117554  L 303.167701 125.702251  L 307.668511 123.508584  L 312.133387 121.514852  L 316.562282 119.702167  L 320.955209 118.053995  L 325.312236 116.555777  L 329.633473 115.194635  L 333.919067 113.959128  L 338.169197 112.839049  L 342.384065 111.825257  L 346.563898 110.909541  L 350.708941 110.084498  L 354.819452 109.343439  L 358.895705 108.680297  L 362.937982 108.089559  L 366.946575 107.566204  L 370.921784 107.105646  L 374.863913 106.703687  " clip-path="url(#p6b8a6c0923)" style="fill: none; stroke: #142452; stroke-opacity: 0.45; stroke-width: 0.7" />
    <path data-role="plot-geometry" data-qc-allow-overlap="true" data-qa-reason="Plot grid, curve and marker geometry intentionally share the data plane" d="M 275.836894 164.592147  L 280.626153 159.008423  L 285.383608 154.063661  L 290.107727 149.662141  L 294.797364 145.728186  L 299.451663 142.200747  L 304.069994 139.029739  L 308.651903 136.173497  L 313.197082 133.596945  L 317.705337 131.270255  L 322.176566 129.167838  L 326.610748 127.267572  L 331.007922 125.550207  L 335.368183 123.998888  L 339.691669 122.598779  L 343.978554 121.336761  L 348.229044 120.201179  L 352.443371 119.181638  L 356.621786 118.268834  L 360.764561 117.45441  L 364.87198 116.730837  L 368.944341 116.09131  L 372.981952 115.529666  L 376.985128 115.040301  L 380.954191 114.618116  L 384.88947 114.258455  L 388.791294 113.957058  " clip-path="url(#p6b8a6c0923)" style="fill: none; stroke: #142452; stroke-opacity: 0.45; stroke-width: 0.7" />
    <path data-role="plot-geometry" data-qc-allow-overlap="true" data-qa-reason="Plot grid, curve and marker geometry intentionally share the data plane" d="M 290.760147 169.638106  L 295.535403 164.100602  L 300.275758 159.211918  L 304.980096 154.874863  L 309.647601 151.012525  L 314.277685 147.56281  L 318.86994 144.474744  L 323.424102 141.705902  L 327.940021 139.220555  L 332.417641 136.988313  L 336.856982 134.983101  L 341.258127 133.182377  L 345.621209 131.566524  L 349.946407 130.11837  L 354.233932 128.822801  L 358.484026 127.666455  L 362.696956 126.637465  L 366.873008 125.725248  L 371.012485 124.920338  L 375.115703 124.214231  L 379.182991 123.599272  L 383.214685 123.068543  L 387.211127 122.615778  L 391.172668 122.235289  L 395.09966 121.921897  L 398.99246 121.670874  L 402.851426 121.477901  " clip-path="url(#p6b8a6c0923)" style="fill: none; stroke: #142452; stroke-opacity: 0.45; stroke-width: 0.7" />
    <path data-role="plot-geometry" data-qc-allow-overlap="true" data-qa-reason="Plot grid, curve and marker geometry intentionally share the data plane" d="M 305.879514 174.781502  L 310.639043 169.293814  L 315.360444 164.464888  L 320.043037 160.196047  L 324.686353 156.409132  L 329.290087 153.040995  L 333.854067 150.039766  L 338.378226 147.362254  L 342.862583 144.972075  L 347.307227 142.838274  L 351.712305 140.934287  L 356.078011 139.237151  L 360.404576 137.726882  L 364.692266 136.385989  L 368.94137 135.199081  L 373.152202 134.152551  L 377.325091 133.23432  L 381.460381 132.433618  L 385.558427 131.740812  L 389.619594 131.147257  L 393.644254 130.645166  L 397.632782 130.22751  L 401.585561 129.887922  L 405.502973 129.620626  L 409.385404 129.420361  L 413.23324 129.282332  L 417.046866 129.202157  " clip-path="url(#p6b8a6c0923)" style="fill: none; stroke: #142452; stroke-opacity: 0.45; stroke-width: 0.7" />
   </g>
   </g><g id="mle_maximum" data-anim-target="true" data-anim-label="mle maximum"><g id="mle_maximum_part_0">
    <path data-role="plot-geometry" data-qc-allow-overlap="true" data-qa-reason="Plot grid, curve and marker geometry intentionally share the data plane" d="M 236.407463 196.001905  L 235.580394 97.270765  " clip-path="url(#p6b8a6c0923)" style="fill: none; stroke-dasharray: 6,6; stroke-dashoffset: 0; stroke: #00a653; stroke-width: 2" />
   </g>
   <g id="mle_maximum_part_1">
    <path data-role="plot-geometry" data-qc-allow-overlap="true" data-qa-reason="Plot grid, curve and marker geometry intentionally share the data plane" d="M 188.982128 223.128979  L 236.407463 196.001905  L 350.391548 234.343277  " clip-path="url(#p6b8a6c0923)" style="fill: none; stroke-dasharray: 6,6; stroke-dashoffset: 0; stroke: #00a653; stroke-width: 2" />
   </g>
   <g id="mle_maximum_part_2">
    <path data-role="plot-geometry" data-qc-allow-overlap="true" data-qa-reason="Plot grid, curve and marker geometry intentionally share the data plane" d="M 235.580394 97.270765  " clip-path="url(#p6b8a6c0923)" style="fill: none; stroke: #00a653; stroke-width: 1.5; stroke-linecap: square" />
    <defs>
     <path data-role="plot-geometry" data-qc-allow-overlap="true" data-qa-reason="Plot grid, curve and marker geometry intentionally share the data plane" id="m1f9a4612e1" d="M 0 4  C 1.060812 4 2.078319 3.578535 2.828427 2.828427  C 3.578535 2.078319 4 1.060812 4 0  C 4 -1.060812 3.578535 -2.078319 2.828427 -2.828427  C 2.078319 -3.578535 1.060812 -4 0 -4  C -1.060812 -4 -2.078319 -3.578535 -2.828427 -2.828427  C -3.578535 -2.078319 -4 -1.060812 -4 0  C -4 1.060812 -3.578535 2.078319 -2.828427 2.828427  C -2.078319 3.578535 -1.060812 4 0 4  z " style="stroke: #00a653" />
    </defs>
    <g clip-path="url(#p6b8a6c0923)">
     <use xlink:href="#m1f9a4612e1" x="235.580394" y="97.270765" style="fill: #00a653; stroke: #00a653" />
    </g>
   </g>
   <g id="mle_maximum_part_3">
    
    <g style="fill: #00a653" transform="translate(194.979643 88.265295) scale(0.18 -0.18)">
     <defs>
      <path data-role="plot-geometry" data-qc-allow-overlap="true" data-qa-reason="Plot grid, curve and marker geometry intentionally share the data plane" id="Archivo-SemiBold-65" d="M 486 0  L 486 4390  L 1798 4390  L 2490 1946  Q 2528 1818 2566 1658  Q 2605 1498 2640 1350  Q 2675 1203 2694 1094  L 2746 1094  Q 2758 1190 2784 1331  Q 2810 1472 2845 1635  Q 2880 1798 2925 1952  L 3616 4390  L 4915 4390  L 4915 0  L 4083 0  L 4083 2221  Q 4083 2515 4089 2809  Q 4096 3104 4105 3315  Q 4115 3526 4115 3565  L 4064 3565  Q 4051 3507 4000 3315  Q 3949 3123 3891 2899  Q 3834 2675 3789 2515  L 3066 0  L 2298 0  L 1574 2509  Q 1536 2643 1488 2832  Q 1440 3021 1392 3219  Q 1344 3418 1306 3565  L 1254 3565  Q 1261 3392 1267 3152  Q 1274 2912 1280 2665  Q 1286 2419 1286 2221  L 1286 0  L 486 0  z " transform="scale(0.015625)" />
      <path data-role="plot-geometry" data-qc-allow-overlap="true" data-qa-reason="Plot grid, curve and marker geometry intentionally share the data plane" id="Archivo-SemiBold-e1" d="M 1280 -77  Q 1139 -77 956 -41  Q 774 -6 604 90  Q 435 186 326 374  Q 218 563 218 870  Q 218 1216 371 1443  Q 525 1670 803 1801  Q 1082 1933 1469 1987  Q 1856 2042 2317 2042  L 2317 2317  Q 2317 2464 2272 2579  Q 2227 2694 2108 2761  Q 1990 2829 1754 2829  Q 1517 2829 1382 2771  Q 1248 2714 1197 2630  Q 1146 2547 1146 2458  L 1146 2368  L 390 2368  Q 384 2400 384 2432  Q 384 2464 384 2509  Q 384 2797 557 3008  Q 730 3219 1037 3331  Q 1344 3443 1747 3443  Q 2208 3443 2505 3315  Q 2803 3187 2950 2950  Q 3098 2714 3098 2374  L 3098 787  Q 3098 666 3168 614  Q 3238 563 3322 563  L 3526 563  L 3526 26  Q 3462 0 3340 -35  Q 3219 -70 3040 -70  Q 2874 -70 2742 -16  Q 2611 38 2521 140  Q 2432 243 2394 384  L 2355 384  Q 2246 250 2096 144  Q 1946 38 1744 -19  Q 1542 -77 1280 -77  z M 1517 563  Q 1709 563 1859 620  Q 2010 678 2109 780  Q 2208 883 2262 1030  Q 2317 1178 2317 1350  L 2317 1504  Q 1965 1504 1667 1459  Q 1370 1414 1194 1292  Q 1018 1171 1018 947  Q 1018 832 1072 745  Q 1126 659 1238 611  Q 1350 563 1517 563  z " transform="scale(0.015625)" />
      <path data-role="plot-geometry" data-qc-allow-overlap="true" data-qa-reason="Plot grid, curve and marker geometry intentionally share the data plane" id="Archivo-SemiBold-1a9" d="M 64 0  L 1267 1734  L 147 3366  L 1094 3366  L 1760 2323  L 1798 2323  L 2477 3366  L 3366 3366  L 2240 1754  L 3430 0  L 2496 0  L 1747 1165  L 1709 1165  L 954 0  L 64 0  z " transform="scale(0.015625)" />
      <path data-role="plot-geometry" data-qc-allow-overlap="true" data-qa-reason="Plot grid, curve and marker geometry intentionally share the data plane" id="Archivo-SemiBold-129" d="M 416 3885  L 416 4627  L 1197 4627  L 1197 3885  L 416 3885  z M 416 0  L 416 3366  L 1197 3366  L 1197 0  L 416 0  z " transform="scale(0.015625)" />
      <path data-role="plot-geometry" data-qc-allow-overlap="true" data-qa-reason="Plot grid, curve and marker geometry intentionally share the data plane" id="Archivo-SemiBold-147" d="M 416 0  L 416 3366  L 1069 3366  L 1133 2918  L 1178 2918  Q 1286 3072 1427 3190  Q 1568 3309 1750 3376  Q 1933 3443 2150 3443  Q 2445 3443 2675 3321  Q 2906 3200 3034 2918  L 3078 2918  Q 3187 3072 3334 3190  Q 3482 3309 3674 3376  Q 3866 3443 4090 3443  Q 4390 3443 4620 3334  Q 4851 3226 4985 2976  Q 5120 2726 5120 2310  L 5120 0  L 4339 0  L 4339 2150  Q 4339 2323 4300 2441  Q 4262 2560 4195 2627  Q 4128 2694 4029 2726  Q 3930 2758 3814 2758  Q 3629 2758 3481 2656  Q 3334 2554 3248 2374  Q 3162 2195 3162 1958  L 3162 0  L 2381 0  L 2381 2150  Q 2381 2323 2342 2441  Q 2304 2560 2237 2627  Q 2170 2694 2070 2726  Q 1971 2758 1856 2758  Q 1670 2758 1520 2656  Q 1370 2554 1283 2374  Q 1197 2195 1197 1958  L 1197 0  L 416 0  z " transform="scale(0.015625)" />
      <path data-role="plot-geometry" data-qc-allow-overlap="true" data-qa-reason="Plot grid, curve and marker geometry intentionally share the data plane" id="Archivo-SemiBold-189" d="M 1485 -77  Q 998 -77 694 188  Q 390 454 390 1094  L 390 3366  L 1171 3366  L 1171 1235  Q 1171 1056 1212 937  Q 1254 819 1334 745  Q 1414 672 1529 640  Q 1645 608 1786 608  Q 1997 608 2166 710  Q 2336 813 2435 995  Q 2534 1178 2534 1408  L 2534 3366  L 3315 3366  L 3315 0  L 2669 0  L 2605 448  L 2560 448  Q 2445 294 2288 176  Q 2131 58 1929 -9  Q 1728 -77 1485 -77  z " transform="scale(0.015625)" />
     </defs>
     <use xlink:href="#Archivo-SemiBold-65" />
     <use xlink:href="#Archivo-SemiBold-e1" transform="translate(84.40625 0)" />
     <use xlink:href="#Archivo-SemiBold-1a9" transform="translate(140 0)" />
     <use xlink:href="#Archivo-SemiBold-129" transform="translate(194.59375 0)" />
     <use xlink:href="#Archivo-SemiBold-147" transform="translate(219.796875 0)" />
     <use xlink:href="#Archivo-SemiBold-189" transform="translate(305.890625 0)" />
     <use xlink:href="#Archivo-SemiBold-147" transform="translate(364.1875 0)" />
    </g>
   </g>
   <g id="mle_maximum_part_4">
    
    <g style="fill: #00a653" transform="translate(165.965188 247.720994) scale(0.18 -0.18)">
     <defs>
      <path data-role="plot-geometry" data-qc-allow-overlap="true" data-qa-reason="Plot grid, curve and marker geometry intentionally share the data plane" id="DejaVuSans-52" d="M 1959 3097  Q 1497 3097 1228 2736  Q 959 2375 959 1747  Q 959 1119 1226 758  Q 1494 397 1959 397  Q 2419 397 2687 759  Q 2956 1122 2956 1747  Q 2956 2369 2687 2733  Q 2419 3097 1959 3097  z M 1959 3584  Q 2709 3584 3137 3096  Q 3566 2609 3566 1747  Q 3566 888 3137 398  Q 2709 -91 1959 -91  Q 1206 -91 779 398  Q 353 888 353 1747  Q 353 2609 779 3096  Q 1206 3584 1959 3584  z " transform="scale(0.015625)" />
      <path data-role="plot-geometry" data-qc-allow-overlap="true" data-qa-reason="Plot grid, curve and marker geometry intentionally share the data plane" id="DejaVuSans-53" d="M 1159 525  L 1159 -1331  L 581 -1331  L 581 3500  L 1159 3500  L 1159 2969  Q 1341 3281 1617 3432  Q 1894 3584 2278 3584  Q 2916 3584 3314 3078  Q 3713 2572 3713 1747  Q 3713 922 3314 415  Q 2916 -91 2278 -91  Q 1894 -91 1617 61  Q 1341 213 1159 525  z M 3116 1747  Q 3116 2381 2855 2742  Q 2594 3103 2138 3103  Q 1681 3103 1420 2742  Q 1159 2381 1159 1747  Q 1159 1113 1420 752  Q 1681 391 2138 391  Q 2594 391 2855 752  Q 3116 1113 3116 1747  z " transform="scale(0.015625)" />
      <path data-role="plot-geometry" data-qc-allow-overlap="true" data-qa-reason="Plot grid, curve and marker geometry intentionally share the data plane" id="DejaVuSans-57" d="M 1172 4494  L 1172 3500  L 2356 3500  L 2356 3053  L 1172 3053  L 1172 1153  Q 1172 725 1289 603  Q 1406 481 1766 481  L 2356 481  L 2356 0  L 1766 0  Q 1100 0 847 248  Q 594 497 594 1153  L 594 3053  L 172 3053  L 172 3500  L 594 3500  L 594 4494  L 1172 4494  z " transform="scale(0.015625)" />
     </defs>
     <use xlink:href="#DejaVuSans-Oblique-37" transform="translate(0 0.09375)" />
     <use xlink:href="#DejaVuSans-52" transform="translate(61.083984 -14.906201) scale(0.7)" />
     <use xlink:href="#DejaVuSans-53" transform="translate(103.911133 -14.906201) scale(0.7)" />
     <use xlink:href="#DejaVuSans-57" transform="translate(148.344727 -14.906201) scale(0.7)" />
    </g>
   </g>
   <g id="mle_maximum_part_5">
    
    <g style="fill: #00a653" transform="translate(367.009313 260.617152) scale(0.18 -0.18)">
     <use xlink:href="#DejaVuSans-Oblique-45" transform="translate(0 0.015625)" />
     <use xlink:href="#DejaVuSans-52" transform="translate(63.476562 -14.984326) scale(0.7)" />
     <use xlink:href="#DejaVuSans-53" transform="translate(106.303711 -14.984326) scale(0.7)" />
     <use xlink:href="#DejaVuSans-57" transform="translate(150.737305 -14.984326) scale(0.7)" />
    </g>
   </g>
  </g></g>
 </g>
 <defs>
  <clipPath id="p6b8a6c0923">
   <rect data-role="plot-geometry" data-qc-allow-overlap="true" data-qa-reason="Plot grid, curve and marker geometry intentionally share the data plane" x="118.512" y="0" width="285.12" height="285.12" />
  </clipPath>
 </defs>
</svg>