<?xml version='1.0' encoding='utf-8'?>
<svg xmlns="http://www.w3.org/2000/svg" xmlns:dc="http://purl.org/dc/elements/1.1/" xmlns:ns2="http://creativecommons.org/ns#" xmlns:ns4="http://www.w3.org/1999/xlink" xmlns:rdf="http://www.w3.org/1999/02/22-rdf-syntax-ns#" width="732.203562pt" height="426.698pt" viewBox="0 0 732.203562 426.698" version="1.1">
 <metadata>
  <rdf:RDF>
   <ns2:Work>
    <dc:type rdf:resource="http://purl.org/dc/dcmitype/StillImage" />
    <dc:date>2026-08-06T11:25:47.022506</dc:date>
    <dc:format>image/svg+xml</dc:format>
    <dc:creator>
     <ns2:Agent>
      <dc:title>Matplotlib v3.11.0, https://matplotlib.org/</dc:title>
     </ns2:Agent>
    </dc:creator>
   </ns2:Work>
  </rdf:RDF>
 </metadata>
 <defs>
  <style type="text/css">*{stroke-linejoin: round; stroke-linecap: butt}</style>
 </defs>
 <g id="figure_1">
  <g id="patch_1">
   <path d="M 0 426.698  L 732.203563 426.698  L 732.203563 0  L 0 0  L 0 426.698  z " style="fill: none; opacity: 0" />
  </g>
  <g id="axes_1">
   <g id="patch_2">
    <path d="M 74.420563 358.83  L 719.828563 358.83  L 719.828563 15.102  L 74.420563 15.102  L 74.420563 358.83  z " style="fill: none" />
   </g>
   <g id="matplotlib.axis_1">
    <g id="xtick_1">
     <g id="line2d_1">
      <path d="M 74.420563 358.83  L 74.420563 15.102  " clip-path="url(#pd1d7cc1633)" style="fill: none; stroke: #e6e7eb; stroke-opacity: 0.75; stroke-width: 0.8; stroke-linecap: square" />
     </g>
     <g id="line2d_2">
      <defs>
       <path id="m2e3024635e" d="M 0 0  L 0 6  " style="stroke: #25495f; stroke-width: 1.2" />
      </defs>
      <g>
       <use ns4:href="#m2e3024635e" x="74.420563" y="358.83" style="fill: #25495f; stroke: #25495f; stroke-width: 1.2" />
      </g>
     </g>
     <g id="text_1">
      <text style="font-size: 18px; font-family: 'Archivo'; text-anchor: middle; fill: #25495f" x="74.420563" y="384.134" transform="rotate(-0 74.420563 384.134)">0</text>
     </g>
    </g>
    <g id="xtick_2">
     <g id="line2d_3">
      <path d="M 203.502163 358.83  L 203.502163 15.102  " clip-path="url(#pd1d7cc1633)" style="fill: none; stroke: #e6e7eb; stroke-opacity: 0.75; stroke-width: 0.8; stroke-linecap: square" />
     </g>
     <g id="line2d_4">
      <g>
       <use ns4:href="#m2e3024635e" x="203.502163" y="358.83" style="fill: #25495f; stroke: #25495f; stroke-width: 1.2" />
      </g>
     </g>
     <g id="text_2">
      <text style="font-size: 18px; font-family: 'Archivo'; text-anchor: middle; fill: #25495f" x="203.502163" y="384.134" transform="rotate(-0 203.502163 384.134)">1</text>
     </g>
    </g>
    <g id="xtick_3">
     <g id="line2d_5">
      <path d="M 332.583763 358.83  L 332.583763 15.102  " clip-path="url(#pd1d7cc1633)" style="fill: none; stroke: #e6e7eb; stroke-opacity: 0.75; stroke-width: 0.8; stroke-linecap: square" />
     </g>
     <g id="line2d_6">
      <g>
       <use ns4:href="#m2e3024635e" x="332.583763" y="358.83" style="fill: #25495f; stroke: #25495f; stroke-width: 1.2" />
      </g>
     </g>
     <g id="text_3">
      <text style="font-size: 18px; font-family: 'Archivo'; text-anchor: middle; fill: #25495f" x="332.583763" y="384.134" transform="rotate(-0 332.583763 384.134)">2</text>
     </g>
    </g>
    <g id="xtick_4">
     <g id="line2d_7">
      <path d="M 461.665363 358.83  L 461.665363 15.102  " clip-path="url(#pd1d7cc1633)" style="fill: none; stroke: #e6e7eb; stroke-opacity: 0.75; stroke-width: 0.8; stroke-linecap: square" />
     </g>
     <g id="line2d_8">
      <g>
       <use ns4:href="#m2e3024635e" x="461.665363" y="358.83" style="fill: #25495f; stroke: #25495f; stroke-width: 1.2" />
      </g>
     </g>
     <g id="text_4">
      <text style="font-size: 18px; font-family: 'Archivo'; text-anchor: middle; fill: #25495f" x="461.665363" y="384.134" transform="rotate(-0 461.665363 384.134)">3</text>
     </g>
    </g>
    <g id="xtick_5">
     <g id="line2d_9">
      <path d="M 590.746963 358.83  L 590.746963 15.102  " clip-path="url(#pd1d7cc1633)" style="fill: none; stroke: #e6e7eb; stroke-opacity: 0.75; stroke-width: 0.8; stroke-linecap: square" />
     </g>
     <g id="line2d_10">
      <g>
       <use ns4:href="#m2e3024635e" x="590.746963" y="358.83" style="fill: #25495f; stroke: #25495f; stroke-width: 1.2" />
      </g>
     </g>
     <g id="text_5">
      <text style="font-size: 18px; font-family: 'Archivo'; text-anchor: middle; fill: #25495f" x="590.746963" y="384.134" transform="rotate(-0 590.746963 384.134)">4</text>
     </g>
    </g>
    <g id="xtick_6">
     <g id="line2d_11">
      <path d="M 719.828563 358.83  L 719.828563 15.102  " clip-path="url(#pd1d7cc1633)" style="fill: none; stroke: #e6e7eb; stroke-opacity: 0.75; stroke-width: 0.8; stroke-linecap: square" />
     </g>
     <g id="line2d_12">
      <g>
       <use ns4:href="#m2e3024635e" x="719.828563" y="358.83" style="fill: #25495f; stroke: #25495f; stroke-width: 1.2" />
      </g>
     </g>
     <g id="text_6">
      <text style="font-size: 18px; font-family: 'Archivo'; text-anchor: middle; fill: #25495f" x="719.828563" y="384.134" transform="rotate(-0 719.828563 384.134)">5</text>
     </g>
    </g>
    <g id="text_7">
     <text style="font-weight: 700; font-size: 18px; font-family: 'Archivo'; text-anchor: middle; fill: #031334" x="397.124563" y="415.718" transform="rotate(-0 397.124563 415.718)">Lebensdauer t</text>
    </g>
   </g>
   <g id="matplotlib.axis_2">
    <g id="ytick_1">
     <g id="line2d_13">
      <path d="M 74.420563 358.83  L 719.828563 358.83  " clip-path="url(#pd1d7cc1633)" style="fill: none; stroke: #e6e7eb; stroke-opacity: 0.75; stroke-width: 0.8; stroke-linecap: square" />
     </g>
     <g id="line2d_14">
      <defs>
       <path id="mf0499546fa" d="M 0 0  L -6 0  " style="stroke: #25495f; stroke-width: 1.2" />
      </defs>
      <g>
       <use ns4:href="#mf0499546fa" x="74.420563" y="358.83" style="fill: #25495f; stroke: #25495f; stroke-width: 1.2" />
      </g>
     </g>
     <g id="text_8">
      <text style="font-size: 18px; font-family: 'Archivo'; text-anchor: end; fill: #25495f" x="64.920563" y="366.732" transform="rotate(-0 64.920563 366.732)">0.0</text>
     </g>
    </g>
    <g id="ytick_2">
     <g id="line2d_15">
      <path d="M 74.420563 320.638  L 719.828563 320.638  " clip-path="url(#pd1d7cc1633)" style="fill: none; stroke: #e6e7eb; stroke-opacity: 0.75; stroke-width: 0.8; stroke-linecap: square" />
     </g>
     <g id="line2d_16">
      <g>
       <use ns4:href="#mf0499546fa" x="74.420563" y="320.638" style="fill: #25495f; stroke: #25495f; stroke-width: 1.2" />
      </g>
     </g>
     <g id="text_9">
      <text style="font-size: 18px; font-family: 'Archivo'; text-anchor: end; fill: #25495f" x="64.920563" y="328.54" transform="rotate(-0 64.920563 328.54)">0.1</text>
     </g>
    </g>
    <g id="ytick_3">
     <g id="line2d_17">
      <path d="M 74.420563 282.446  L 719.828563 282.446  " clip-path="url(#pd1d7cc1633)" style="fill: none; stroke: #e6e7eb; stroke-opacity: 0.75; stroke-width: 0.8; stroke-linecap: square" />
     </g>
     <g id="line2d_18">
      <g>
       <use ns4:href="#mf0499546fa" x="74.420563" y="282.446" style="fill: #25495f; stroke: #25495f; stroke-width: 1.2" />
      </g>
     </g>
     <g id="text_10">
      <text style="font-size: 18px; font-family: 'Archivo'; text-anchor: end; fill: #25495f" x="64.920563" y="290.348" transform="rotate(-0 64.920563 290.348)">0.2</text>
     </g>
    </g>
    <g id="ytick_4">
     <g id="line2d_19">
      <path d="M 74.420563 244.254  L 719.828563 244.254  " clip-path="url(#pd1d7cc1633)" style="fill: none; stroke: #e6e7eb; stroke-opacity: 0.75; stroke-width: 0.8; stroke-linecap: square" />
     </g>
     <g id="line2d_20">
      <g>
       <use ns4:href="#mf0499546fa" x="74.420563" y="244.254" style="fill: #25495f; stroke: #25495f; stroke-width: 1.2" />
      </g>
     </g>
     <g id="text_11">
      <text style="font-size: 18px; font-family: 'Archivo'; text-anchor: end; fill: #25495f" x="64.920563" y="252.156" transform="rotate(-0 64.920563 252.156)">0.3</text>
     </g>
    </g>
    <g id="ytick_5">
     <g id="line2d_21">
      <path d="M 74.420563 206.062  L 719.828563 206.062  " clip-path="url(#pd1d7cc1633)" style="fill: none; stroke: #e6e7eb; stroke-opacity: 0.75; stroke-width: 0.8; stroke-linecap: square" />
     </g>
     <g id="line2d_22">
      <g>
       <use ns4:href="#mf0499546fa" x="74.420563" y="206.062" style="fill: #25495f; stroke: #25495f; stroke-width: 1.2" />
      </g>
     </g>
     <g id="text_12">
      <text style="font-size: 18px; font-family: 'Archivo'; text-anchor: end; fill: #25495f" x="64.920563" y="213.964" transform="rotate(-0 64.920563 213.964)">0.4</text>
     </g>
    </g>
    <g id="ytick_6">
     <g id="line2d_23">
      <path d="M 74.420563 167.87  L 719.828563 167.87  " clip-path="url(#pd1d7cc1633)" style="fill: none; stroke: #e6e7eb; stroke-opacity: 0.75; stroke-width: 0.8; stroke-linecap: square" />
     </g>
     <g id="line2d_24">
      <g>
       <use ns4:href="#mf0499546fa" x="74.420563" y="167.87" style="fill: #25495f; stroke: #25495f; stroke-width: 1.2" />
      </g>
     </g>
     <g id="text_13">
      <text style="font-size: 18px; font-family: 'Archivo'; text-anchor: end; fill: #25495f" x="64.920563" y="175.772" transform="rotate(-0 64.920563 175.772)">0.5</text>
     </g>
    </g>
    <g id="ytick_7">
     <g id="line2d_25">
      <path d="M 74.420563 129.678  L 719.828563 129.678  " clip-path="url(#pd1d7cc1633)" style="fill: none; stroke: #e6e7eb; stroke-opacity: 0.75; stroke-width: 0.8; stroke-linecap: square" />
     </g>
     <g id="line2d_26">
      <g>
       <use ns4:href="#mf0499546fa" x="74.420563" y="129.678" style="fill: #25495f; stroke: #25495f; stroke-width: 1.2" />
      </g>
     </g>
     <g id="text_14">
      <text style="font-size: 18px; font-family: 'Archivo'; text-anchor: end; fill: #25495f" x="64.920563" y="137.58" transform="rotate(-0 64.920563 137.58)">0.6</text>
     </g>
    </g>
    <g id="ytick_8">
     <g id="line2d_27">
      <path d="M 74.420563 91.486  L 719.828563 91.486  " clip-path="url(#pd1d7cc1633)" style="fill: none; stroke: #e6e7eb; stroke-opacity: 0.75; stroke-width: 0.8; stroke-linecap: square" />
     </g>
     <g id="line2d_28">
      <g>
       <use ns4:href="#mf0499546fa" x="74.420563" y="91.486" style="fill: #25495f; stroke: #25495f; stroke-width: 1.2" />
      </g>
     </g>
     <g id="text_15">
      <text style="font-size: 18px; font-family: 'Archivo'; text-anchor: end; fill: #25495f" x="64.920563" y="99.388" transform="rotate(-0 64.920563 99.388)">0.7</text>
     </g>
    </g>
    <g id="ytick_9">
     <g id="line2d_29">
      <path d="M 74.420563 53.294  L 719.828563 53.294  " clip-path="url(#pd1d7cc1633)" style="fill: none; stroke: #e6e7eb; stroke-opacity: 0.75; stroke-width: 0.8; stroke-linecap: square" />
     </g>
     <g id="line2d_30">
      <g>
       <use ns4:href="#mf0499546fa" x="74.420563" y="53.294" style="fill: #25495f; stroke: #25495f; stroke-width: 1.2" />
      </g>
     </g>
     <g id="text_16">
      <text style="font-size: 18px; font-family: 'Archivo'; text-anchor: end; fill: #25495f" x="64.920563" y="61.196" transform="rotate(-0 64.920563 61.196)">0.8</text>
     </g>
    </g>
    <g id="ytick_10">
     <g id="line2d_31">
      <path d="M 74.420563 15.102  L 719.828563 15.102  " clip-path="url(#pd1d7cc1633)" style="fill: none; stroke: #e6e7eb; stroke-opacity: 0.75; stroke-width: 0.8; stroke-linecap: square" />
     </g>
     <g id="line2d_32">
      <g>
       <use ns4:href="#mf0499546fa" x="74.420563" y="15.102" style="fill: #25495f; stroke: #25495f; stroke-width: 1.2" />
      </g>
     </g>
     <g id="text_17">
      <text style="font-size: 18px; font-family: 'Archivo'; text-anchor: end; fill: #25495f" x="64.920563" y="23.004" transform="rotate(-0 64.920563 23.004)">0.9</text>
     </g>
    </g>
    <g id="text_18">
     <text style="font-weight: 700; font-size: 18px; font-family: 'Archivo'; text-anchor: middle; fill: #031334" x="23.004" y="186.966" transform="rotate(-90 23.004 186.966)">Dichtefunktion f(t)</text>
    </g>
   </g>
   <g id="normal_density_curves" data-anim-target="true" data-anim-label="Dichtekurven der Normalverteilung"><g id="normal_density_sigma_1">
    <path d="M 74.420563 358.828864  L 140.900356 358.714774  L 160.290296 358.46698  L 173.216923 358.087995  L 183.373558 357.564883  L 191.683532 356.908133  L 198.146846 356.199825  L 204.610159 355.266388  L 210.150142 354.243452  L 215.690125 352.970215  L 220.306777 351.683384  L 224.923429 350.158444  L 229.540082 348.361812  L 233.233404 346.704737  L 236.926726 344.83127  L 240.620047 342.721171  L 244.313369 340.35361  L 248.006691 337.707364  L 251.700013 334.761062  L 255.393335 331.493457  L 259.086657 327.883746  L 262.779979 323.911915  L 266.473301 319.559125  L 270.166623 314.808121  L 273.859944 309.643671  L 277.553266 304.05302  L 281.246588 298.026359  L 284.93991 291.557289  L 288.633232 284.643292  L 292.326554 277.286169  L 296.019876 269.492467  L 300.636528 259.15469  L 305.253181 248.188234  L 309.869833 236.642024  L 315.409816 222.111746  L 321.873129 204.406547  L 330.183103 180.874762  L 344.03306 141.572916  L 349.573043 126.535226  L 354.189696 114.590254  L 357.883017 105.528406  L 361.576339 96.989186  L 365.269661 89.046989  L 368.039653 83.524909  L 370.809644 78.406814  L 373.579635 73.719226  L 376.349627 69.48674  L 379.119618 65.731804  L 381.88961 62.474528  L 383.736271 60.58828  L 385.582932 58.93564  L 387.429593 57.520614  L 389.276253 56.346645  L 391.122914 55.416597  L 392.969575 54.732745  L 394.816236 54.296765  L 396.662897 54.109724  L 398.509558 54.172084  L 400.356219 54.48369  L 402.20288 55.043778  L 404.049541 55.850975  L 405.896202 56.903304  L 407.742863 58.198196  L 409.589524 59.732495  L 411.436185 61.502475  L 413.282846 63.503852  L 416.052837 66.929097  L 418.822829 70.84557  L 421.59282 75.232361  L 424.362811 80.066284  L 427.132803 85.322077  L 429.902794 90.972623  L 433.596116 99.070873  L 437.289438 107.74784  L 441.90609 119.293204  L 446.522743 131.473967  L 452.062726 146.713543  L 460.3727 170.301753  L 473.299326 206.97655  L 479.76264 224.579562  L 485.302623 238.99481  L 489.919275 250.429679  L 494.535927 261.273853  L 499.15258 271.481274  L 502.845902 279.166719  L 506.539223 286.413482  L 510.232545 293.216241  L 513.925867 299.574313  L 517.619189 305.49123  L 521.312511 310.974288  L 525.005833 316.034076  L 528.699155 320.684012  L 532.392477 324.939876  L 536.085799 328.819358  L 539.77912 332.341629  L 543.472442 335.526935  L 547.165764 338.396221  L 550.859086 340.970793  L 554.552408 343.272011  L 558.24573 345.321019  L 561.939052 347.138518  L 565.632374 348.744571  L 570.249026 350.484056  L 574.865678 351.958771  L 579.482331 353.201777  L 585.022314 354.430106  L 590.562296 355.415608  L 597.02561 356.313567  L 603.488923 356.993876  L 611.798897 357.62355  L 621.032202 358.087995  L 633.035498 358.447453  L 648.732116 358.677325  L 674.585369 358.800438  L 719.828563 358.828864  L 719.828563 358.828864  " clip-path="url(#pd1d7cc1633)" style="fill: none; stroke: #00a754; stroke-width: 3.3; stroke-linecap: square" />
   </g>
   <g id="normal_density_sigma_2">
    <path d="M 74.420563 352.135591  L 84.577198 350.70548  L 93.810502 349.193799  L 103.043807 347.459179  L 112.277112 345.480787  L 120.587086 343.47488  L 128.89706 341.240607  L 137.207035 338.764567  L 145.517009 336.034648  L 152.903653 333.38645  L 160.290296 330.523449  L 167.67694 327.441249  L 175.063584 324.137233  L 182.450228 320.610791  L 190.760202 316.379789  L 199.070176 311.875406  L 207.38015 307.107871  L 215.690125 302.091902  L 224.923429 296.251001  L 235.080065 289.539887  L 246.16003 281.940073  L 260.933318 271.501479  L 290.479893 250.521274  L 300.636528 243.603797  L 309.869833 237.585661  L 318.179807 232.455124  L 325.566451 228.168076  L 332.029764 224.658679  L 338.493078 221.400016  L 344.956391 218.414693  L 350.496374 216.089406  L 356.036356 213.992648  L 361.576339 212.135549  L 367.116322 210.528061  L 372.656305 209.178869  L 378.196288 208.09531  L 382.81294 207.399579  L 387.429593 206.89511  L 392.046245 206.583832  L 396.662897 206.466939  L 401.27955 206.544878  L 405.896202 206.81735  L 410.512854 207.283312  L 415.129507 207.94098  L 419.746159 208.787845  L 425.286142 210.04924  L 430.826125 211.571529  L 436.366108 213.346469  L 441.90609 215.364522  L 447.446073 217.614938  L 452.986056 220.085855  L 459.449369 223.230056  L 465.912683 226.634853  L 472.375996 230.276867  L 479.76264 234.698135  L 488.072614 239.956777  L 497.305919 246.0882  L 508.385884 253.742064  L 524.082502 264.896286  L 547.165764 281.296119  L 559.16906 289.539887  L 569.325696 296.251001  L 578.559 302.091902  L 586.868975 307.107871  L 595.178949 311.875406  L 603.488923 316.379789  L 611.798897 320.610791  L 619.185541 324.137233  L 626.572185 327.441249  L 633.958829 330.523449  L 641.345472 333.38645  L 648.732116 336.034648  L 657.04209 338.764567  L 665.352065 341.240607  L 673.662039 343.47488  L 681.972013 345.480787  L 690.281987 347.272652  L 699.515292 349.030714  L 708.748597 350.56375  L 718.905232 352.014975  L 719.828563 352.135591  L 719.828563 352.135591  " clip-path="url(#pd1d7cc1633)" style="fill: none; stroke: #e9b400; stroke-width: 3.3; stroke-linecap: square" />
   </g>
   <g id="normal_density_sigma_3">
    <path d="M 74.420563 323.951331  L 103.967138 318.849667  L 153.826983 309.965564  L 191.683532 303.323907  L 216.613455 299.169156  L 237.850056 295.85045  L 257.239996 293.049254  L 274.783275 290.739413  L 291.403223 288.775413  L 307.099841 287.141864  L 321.873129 285.816609  L 336.646417 284.709969  L 351.419704 283.83255  L 365.269661 283.225725  L 379.119618 282.833032  L 392.969575 282.657848  L 406.819532 282.701682  L 420.66949 282.964156  L 434.519447 283.44301  L 448.369404 284.134134  L 463.142691 285.098622  L 477.915979 286.288594  L 493.612597 287.787266  L 509.309215 289.511704  L 525.929163 291.563566  L 543.472442 293.955913  L 562.862382 296.835182  L 584.098983 300.222821  L 609.028906 304.435859  L 643.192133 310.459965  L 709.671927 322.221555  L 719.828563 323.951331  L 719.828563 323.951331  " clip-path="url(#pd1d7cc1633)" style="fill: none; stroke: #0c84b4; stroke-width: 3.3; stroke-linecap: square" />
   </g>
   <g id="normal_density_legend">
    <g id="line2d_33">
     <path d="M 603.578563 36.522  L 621.578563 36.522  L 639.578563 36.522  " style="fill: none; stroke: #00a754; stroke-width: 3.3; stroke-linecap: square" />
    </g>
    <g id="text_19">
     
     <g transform="translate(651.578563 41.772)">
      <text>
       <tspan x="0" y="-0.859375" style="font-style: oblique; font-size: 15px; font-family: 'DejaVu Sans'">σ</tspan>
       <tspan x="12.429199" y="-0.859375" style="font-size: 15px; font-family: 'DejaVu Sans'">=</tspan>
       <tspan x="27.919922" y="-0.859375" style="font-size: 15px; font-family: 'DejaVu Sans'">0</tspan>
       <tspan x="37.463379" y="-0.859375" style="font-size: 15px; font-family: 'DejaVu Sans'">,</tspan>
       <tspan x="45.153809" y="-0.859375" style="font-size: 15px; font-family: 'DejaVu Sans'">5</tspan>
      </text>
     </g>
    </g>
    <g id="line2d_34">
     <path d="M 603.578563 61.092  L 621.578563 61.092  L 639.578563 61.092  " style="fill: none; stroke: #e9b400; stroke-width: 3.3; stroke-linecap: square" />
    </g>
    <g id="text_20">
     
     <g transform="translate(651.578563 66.342)">
      <text>
       <tspan x="0" y="-0.0625" style="font-style: oblique; font-size: 15px; font-family: 'DejaVu Sans'">σ</tspan>
       <tspan x="12.429199" y="-0.0625" style="font-size: 15px; font-family: 'DejaVu Sans'">=</tspan>
       <tspan x="27.919922" y="-0.0625" style="font-size: 15px; font-family: 'DejaVu Sans'">1</tspan>
      </text>
     </g>
    </g>
    <g id="line2d_35">
     <path d="M 603.578563 85.662  L 621.578563 85.662  L 639.578563 85.662  " style="fill: none; stroke: #0c84b4; stroke-width: 3.3; stroke-linecap: square" />
    </g>
    <g id="text_21">
     
     <g transform="translate(651.578563 90.912)">
      <text>
       <tspan x="0" y="-0.859375" style="font-style: oblique; font-size: 15px; font-family: 'DejaVu Sans'">σ</tspan>
       <tspan x="12.429199" y="-0.859375" style="font-size: 15px; font-family: 'DejaVu Sans'">=</tspan>
       <tspan x="27.919922" y="-0.859375" style="font-size: 15px; font-family: 'DejaVu Sans'">2</tspan>
      </text>
     </g>
    </g>
   </g>
  </g><g id="normal_mean_marker" data-anim-target="true" data-anim-label="Lageparameter mü"><g id="normal_mean_line">
    <path d="M 397.124563 358.83  L 397.124563 15.102  " clip-path="url(#pd1d7cc1633)" style="fill: none; stroke-dasharray: 8.14,3.52; stroke-dashoffset: 0; stroke: #25495f; stroke-width: 2.2" />
   </g>
   <g id="normal_mean_label">
    <text style="font-weight: 700; font-size: 19px; font-family: 'Archivo'; text-anchor: end; fill: #031334" x="384.216403" y="38.0172" transform="rotate(-0 384.216403 38.0172)">μ</text>
   </g>
   </g><g id="patch_3">
    <path d="M 74.420563 358.83  L 74.420563 15.102  " style="fill: none; stroke: #031334; stroke-width: 1.6; stroke-linejoin: miter; stroke-linecap: square" />
   </g>
   <g id="patch_4">
    <path d="M 74.420563 358.83  L 719.828563 358.83  " style="fill: none; stroke: #031334; stroke-width: 1.6; stroke-linejoin: miter; stroke-linecap: square" />
   </g>
   </g>
 </g>
 <defs>
  <clipPath id="pd1d7cc1633">
   <rect x="74.420563" y="15.102" width="645.408" height="343.728" />
  </clipPath>
 </defs>
</svg>